<mxfile host="Electron" agent="Mozilla/5.0 (Macintosh; Intel Mac OS X 10_15_7) AppleWebKit/537.36 (KHTML, like Gecko) draw.io/26.0.16 Chrome/132.0.6834.196 Electron/34.2.0 Safari/537.36" version="26.0.16">
  <diagram name="Trang-1" id="R6pPkdFJowUrBxE6vwju">
    <mxGraphModel dx="1312" dy="-173" grid="1" gridSize="10" guides="1" tooltips="1" connect="1" arrows="1" fold="1" page="1" pageScale="1" pageWidth="827" pageHeight="1169" math="0" shadow="0">
      <root>
        <mxCell id="0" />
        <mxCell id="1" parent="0" />
        <mxCell id="VxItNK5nw-ICN9mxkyNQ-1" value="&#xa;    &#xa;        &#xa;            &#xa;            &#xa;            &#xa;            &#xa;                &#xa;                &#xa;            &#xa;            &#xa;            &#xa;        &#xa;        &#xa;        &#xa;            &#xa;            &#xa;                &#xa;                &#xa;            &#xa;            &#xa;            &#xa;                &#xa;                &#xa;            &#xa;            &#xa;        &#xa;        &#xa;        &#xa;            &#xa;            &#xa;                &#xa;                &#xa;            &#xa;        &#xa;        &#xa;        &#xa;        &#xa;    &#xa;" style="text;whiteSpace=wrap;html=1;" parent="1" vertex="1">
          <mxGeometry x="930" y="1400" width="30" height="580" as="geometry" />
        </mxCell>
        <mxCell id="VxItNK5nw-ICN9mxkyNQ-2" value="Quản lý vay vốn" style="swimlane;html=1;childLayout=stackLayout;startSize=20;rounded=0;shadow=0;comic=0;labelBackgroundColor=none;strokeWidth=1;fontFamily=Verdana;fontSize=12;align=center;fixedWidth=1;" parent="1" vertex="1">
          <mxGeometry x="470" y="1170" width="921.25" height="1100" as="geometry">
            <mxRectangle x="40" y="20" width="70" height="30" as="alternateBounds" />
          </mxGeometry>
        </mxCell>
        <mxCell id="VxItNK5nw-ICN9mxkyNQ-3" style="edgeStyle=orthogonalEdgeStyle;rounded=0;html=1;labelBackgroundColor=none;startArrow=none;startFill=0;startSize=5;endArrow=classicThin;endFill=1;endSize=5;jettySize=auto;orthogonalLoop=1;strokeWidth=1;fontFamily=Verdana;fontSize=12" parent="VxItNK5nw-ICN9mxkyNQ-2" source="VxItNK5nw-ICN9mxkyNQ-15" target="VxItNK5nw-ICN9mxkyNQ-25" edge="1">
          <mxGeometry relative="1" as="geometry">
            <mxPoint x="400" y="160" as="targetPoint" />
          </mxGeometry>
        </mxCell>
        <mxCell id="VxItNK5nw-ICN9mxkyNQ-4" style="edgeStyle=orthogonalEdgeStyle;rounded=0;html=1;labelBackgroundColor=none;startArrow=none;startFill=0;startSize=5;endArrow=classicThin;endFill=1;endSize=5;jettySize=auto;orthogonalLoop=1;strokeWidth=1;fontFamily=Verdana;fontSize=12" parent="VxItNK5nw-ICN9mxkyNQ-2" source="VxItNK5nw-ICN9mxkyNQ-25" target="VxItNK5nw-ICN9mxkyNQ-17" edge="1">
          <mxGeometry relative="1" as="geometry">
            <mxPoint x="244" y="80" as="sourcePoint" />
            <mxPoint x="409" y="80" as="targetPoint" />
            <Array as="points">
              <mxPoint x="470" y="110" />
              <mxPoint x="169" y="110" />
            </Array>
          </mxGeometry>
        </mxCell>
        <mxCell id="VxItNK5nw-ICN9mxkyNQ-5" style="edgeStyle=orthogonalEdgeStyle;rounded=0;html=1;labelBackgroundColor=none;startArrow=none;startFill=0;startSize=5;endArrow=classicThin;endFill=1;endSize=5;jettySize=auto;orthogonalLoop=1;strokeWidth=1;fontFamily=Verdana;fontSize=12;" parent="VxItNK5nw-ICN9mxkyNQ-2" source="VxItNK5nw-ICN9mxkyNQ-18" target="VxItNK5nw-ICN9mxkyNQ-27" edge="1">
          <mxGeometry relative="1" as="geometry">
            <mxPoint x="225" y="158" as="sourcePoint" />
            <mxPoint x="225" y="210" as="targetPoint" />
            <Array as="points">
              <mxPoint x="370" y="195" />
              <mxPoint x="370" y="150" />
            </Array>
          </mxGeometry>
        </mxCell>
        <mxCell id="VxItNK5nw-ICN9mxkyNQ-6" style="edgeStyle=elbowEdgeStyle;rounded=0;orthogonalLoop=1;jettySize=auto;html=1;elbow=vertical;exitX=0;exitY=0.5;exitDx=0;exitDy=0;" parent="VxItNK5nw-ICN9mxkyNQ-2" source="VxItNK5nw-ICN9mxkyNQ-38" target="VxItNK5nw-ICN9mxkyNQ-22" edge="1">
          <mxGeometry relative="1" as="geometry" />
        </mxCell>
        <mxCell id="VxItNK5nw-ICN9mxkyNQ-7" style="edgeStyle=orthogonalEdgeStyle;rounded=0;orthogonalLoop=1;jettySize=auto;html=1;exitX=0;exitY=0.5;exitDx=0;exitDy=0;entryX=1;entryY=0.5;entryDx=0;entryDy=0;" parent="VxItNK5nw-ICN9mxkyNQ-2" source="VxItNK5nw-ICN9mxkyNQ-48" target="VxItNK5nw-ICN9mxkyNQ-21" edge="1">
          <mxGeometry relative="1" as="geometry" />
        </mxCell>
        <mxCell id="VxItNK5nw-ICN9mxkyNQ-8" style="edgeStyle=orthogonalEdgeStyle;rounded=0;orthogonalLoop=1;jettySize=auto;html=1;exitX=0.5;exitY=1;exitDx=0;exitDy=0;entryX=0.5;entryY=0;entryDx=0;entryDy=0;" parent="VxItNK5nw-ICN9mxkyNQ-2" source="VxItNK5nw-ICN9mxkyNQ-21" target="VxItNK5nw-ICN9mxkyNQ-49" edge="1">
          <mxGeometry relative="1" as="geometry">
            <mxPoint x="380" y="330" as="targetPoint" />
          </mxGeometry>
        </mxCell>
        <mxCell id="VxItNK5nw-ICN9mxkyNQ-9" style="edgeStyle=orthogonalEdgeStyle;rounded=0;orthogonalLoop=1;jettySize=auto;html=1;exitX=0;exitY=0.5;exitDx=0;exitDy=0;entryX=1;entryY=0.5;entryDx=0;entryDy=0;" parent="VxItNK5nw-ICN9mxkyNQ-2" source="VxItNK5nw-ICN9mxkyNQ-49" target="VxItNK5nw-ICN9mxkyNQ-23" edge="1">
          <mxGeometry relative="1" as="geometry" />
        </mxCell>
        <mxCell id="VxItNK5nw-ICN9mxkyNQ-10" style="edgeStyle=orthogonalEdgeStyle;rounded=0;orthogonalLoop=1;jettySize=auto;html=1;exitX=0.5;exitY=1;exitDx=0;exitDy=0;entryX=0.5;entryY=0;entryDx=0;entryDy=0;" parent="VxItNK5nw-ICN9mxkyNQ-2" source="VxItNK5nw-ICN9mxkyNQ-23" target="VxItNK5nw-ICN9mxkyNQ-33" edge="1">
          <mxGeometry relative="1" as="geometry">
            <mxPoint x="390" y="400" as="targetPoint" />
          </mxGeometry>
        </mxCell>
        <mxCell id="VxItNK5nw-ICN9mxkyNQ-11" style="edgeStyle=orthogonalEdgeStyle;rounded=0;orthogonalLoop=1;jettySize=auto;html=1;exitX=1;exitY=0.5;exitDx=0;exitDy=0;entryX=0;entryY=0.5;entryDx=0;entryDy=0;" parent="VxItNK5nw-ICN9mxkyNQ-2" source="VxItNK5nw-ICN9mxkyNQ-36" target="VxItNK5nw-ICN9mxkyNQ-69" edge="1">
          <mxGeometry relative="1" as="geometry" />
        </mxCell>
        <mxCell id="VxItNK5nw-ICN9mxkyNQ-12" value="Khách hàng" style="swimlane;html=1;startSize=20;" parent="VxItNK5nw-ICN9mxkyNQ-2" vertex="1">
          <mxGeometry y="20" width="337" height="1080" as="geometry" />
        </mxCell>
        <mxCell id="VxItNK5nw-ICN9mxkyNQ-13" value="Tạo khoản vay mới" style="rounded=1;whiteSpace=wrap;html=1;shadow=0;comic=0;labelBackgroundColor=none;strokeWidth=1;fontFamily=Verdana;fontSize=12;align=center;arcSize=50;" parent="VxItNK5nw-ICN9mxkyNQ-12" vertex="1">
          <mxGeometry x="131.5" y="680" width="140" height="30" as="geometry" />
        </mxCell>
        <mxCell id="VxItNK5nw-ICN9mxkyNQ-14" value="" style="ellipse;whiteSpace=wrap;html=1;rounded=0;shadow=0;comic=0;labelBackgroundColor=none;strokeWidth=1;fillColor=#000000;fontFamily=Verdana;fontSize=12;align=center;" parent="VxItNK5nw-ICN9mxkyNQ-12" vertex="1">
          <mxGeometry x="20" y="30" width="40" height="40" as="geometry" />
        </mxCell>
        <mxCell id="VxItNK5nw-ICN9mxkyNQ-15" value="Khoản vay" style="rounded=1;whiteSpace=wrap;html=1;shadow=0;comic=0;labelBackgroundColor=none;strokeWidth=1;fontFamily=Verdana;fontSize=12;align=center;arcSize=50;" parent="VxItNK5nw-ICN9mxkyNQ-12" vertex="1">
          <mxGeometry x="103.5" y="35" width="130" height="30" as="geometry" />
        </mxCell>
        <mxCell id="VxItNK5nw-ICN9mxkyNQ-16" style="edgeStyle=orthogonalEdgeStyle;rounded=0;html=1;labelBackgroundColor=none;startArrow=none;startFill=0;startSize=5;endArrow=classicThin;endFill=1;endSize=5;jettySize=auto;orthogonalLoop=1;strokeWidth=1;fontFamily=Verdana;fontSize=12" parent="VxItNK5nw-ICN9mxkyNQ-12" source="VxItNK5nw-ICN9mxkyNQ-14" target="VxItNK5nw-ICN9mxkyNQ-15" edge="1">
          <mxGeometry relative="1" as="geometry" />
        </mxCell>
        <mxCell id="VxItNK5nw-ICN9mxkyNQ-17" value="" style="whiteSpace=wrap;html=1;rounded=0;shadow=0;comic=0;labelBackgroundColor=none;strokeWidth=1;fillColor=#000000;fontFamily=Verdana;fontSize=12;align=center;rotation=0;" parent="VxItNK5nw-ICN9mxkyNQ-12" vertex="1">
          <mxGeometry x="50" y="100" width="147" height="10" as="geometry" />
        </mxCell>
        <mxCell id="VxItNK5nw-ICN9mxkyNQ-18" value="Thanh toán khoản vay" style="rounded=1;whiteSpace=wrap;html=1;shadow=0;comic=0;labelBackgroundColor=none;strokeWidth=1;fontFamily=Verdana;fontSize=12;align=center;arcSize=50;" parent="VxItNK5nw-ICN9mxkyNQ-12" vertex="1">
          <mxGeometry x="208.5" y="120" width="110" height="30" as="geometry" />
        </mxCell>
        <mxCell id="VxItNK5nw-ICN9mxkyNQ-19" style="edgeStyle=orthogonalEdgeStyle;rounded=0;html=1;labelBackgroundColor=none;startArrow=none;startFill=0;startSize=5;endArrow=classicThin;endFill=1;endSize=5;jettySize=auto;orthogonalLoop=1;strokeWidth=1;fontFamily=Verdana;fontSize=12;exitX=0.34;exitY=1;exitDx=0;exitDy=0;exitPerimeter=0;entryX=0;entryY=0.5;entryDx=0;entryDy=0;" parent="VxItNK5nw-ICN9mxkyNQ-12" source="VxItNK5nw-ICN9mxkyNQ-17" target="VxItNK5nw-ICN9mxkyNQ-13" edge="1">
          <mxGeometry relative="1" as="geometry">
            <Array as="points">
              <mxPoint x="100" y="695" />
            </Array>
            <mxPoint x="120" y="150" as="sourcePoint" />
            <mxPoint x="237" y="215" as="targetPoint" />
          </mxGeometry>
        </mxCell>
        <mxCell id="VxItNK5nw-ICN9mxkyNQ-20" style="edgeStyle=orthogonalEdgeStyle;rounded=0;html=1;labelBackgroundColor=none;startArrow=none;startFill=0;startSize=5;endArrow=classicThin;endFill=1;endSize=5;jettySize=auto;orthogonalLoop=1;strokeWidth=1;fontFamily=Verdana;fontSize=12;entryX=0;entryY=0.5;entryDx=0;entryDy=0;" parent="VxItNK5nw-ICN9mxkyNQ-12" source="VxItNK5nw-ICN9mxkyNQ-17" target="VxItNK5nw-ICN9mxkyNQ-18" edge="1">
          <mxGeometry relative="1" as="geometry">
            <mxPoint x="190" y="230" as="sourcePoint" />
            <mxPoint x="90" y="290" as="targetPoint" />
            <Array as="points">
              <mxPoint x="124" y="175" />
              <mxPoint x="209" y="175" />
            </Array>
          </mxGeometry>
        </mxCell>
        <mxCell id="VxItNK5nw-ICN9mxkyNQ-21" value="Xác nhận thanh toán" style="rounded=1;whiteSpace=wrap;html=1;shadow=0;comic=0;labelBackgroundColor=none;strokeWidth=1;fontFamily=Verdana;fontSize=12;align=center;arcSize=50;" parent="VxItNK5nw-ICN9mxkyNQ-12" vertex="1">
          <mxGeometry x="130" y="220" width="127" height="30" as="geometry" />
        </mxCell>
        <mxCell id="VxItNK5nw-ICN9mxkyNQ-22" value="Nhập lại mã pin" style="rounded=1;whiteSpace=wrap;html=1;shadow=0;comic=0;labelBackgroundColor=none;strokeWidth=1;fontFamily=Verdana;fontSize=12;align=center;arcSize=50;" parent="VxItNK5nw-ICN9mxkyNQ-12" vertex="1">
          <mxGeometry x="113.5" y="540" width="110" height="40" as="geometry" />
        </mxCell>
        <mxCell id="VxItNK5nw-ICN9mxkyNQ-23" value="Nhập mã pin" style="rounded=1;whiteSpace=wrap;html=1;shadow=0;comic=0;labelBackgroundColor=none;strokeWidth=1;fontFamily=Verdana;fontSize=12;align=center;arcSize=50;" parent="VxItNK5nw-ICN9mxkyNQ-12" vertex="1">
          <mxGeometry x="131.5" y="300" width="127" height="30" as="geometry" />
        </mxCell>
        <mxCell id="VxItNK5nw-ICN9mxkyNQ-24" value="Hệ thống" style="swimlane;html=1;startSize=20;" parent="VxItNK5nw-ICN9mxkyNQ-2" vertex="1">
          <mxGeometry x="337" y="20" width="334.25" height="1080" as="geometry" />
        </mxCell>
        <mxCell id="VxItNK5nw-ICN9mxkyNQ-25" value="Hiển thị tuỳ chọn" style="rounded=1;whiteSpace=wrap;html=1;shadow=0;comic=0;labelBackgroundColor=none;strokeWidth=1;fontFamily=Verdana;fontSize=12;align=center;arcSize=50;" parent="VxItNK5nw-ICN9mxkyNQ-24" vertex="1">
          <mxGeometry x="61.5" y="35" width="127" height="30" as="geometry" />
        </mxCell>
        <mxCell id="VxItNK5nw-ICN9mxkyNQ-26" style="edgeStyle=orthogonalEdgeStyle;rounded=0;orthogonalLoop=1;jettySize=auto;html=1;exitX=0.5;exitY=1;exitDx=0;exitDy=0;entryX=0.5;entryY=0;entryDx=0;entryDy=0;" parent="VxItNK5nw-ICN9mxkyNQ-24" source="VxItNK5nw-ICN9mxkyNQ-27" target="VxItNK5nw-ICN9mxkyNQ-47" edge="1">
          <mxGeometry relative="1" as="geometry" />
        </mxCell>
        <mxCell id="VxItNK5nw-ICN9mxkyNQ-27" value="Kiểm tra khoản vay hiện có" style="rounded=1;whiteSpace=wrap;html=1;shadow=0;comic=0;labelBackgroundColor=none;strokeWidth=1;fontFamily=Verdana;fontSize=12;align=center;arcSize=50;" parent="VxItNK5nw-ICN9mxkyNQ-24" vertex="1">
          <mxGeometry x="180" y="80" width="127" height="40" as="geometry" />
        </mxCell>
        <mxCell id="VxItNK5nw-ICN9mxkyNQ-28" style="edgeStyle=orthogonalEdgeStyle;rounded=0;orthogonalLoop=1;jettySize=auto;html=1;exitX=0;exitY=0.5;exitDx=0;exitDy=0;entryX=0.5;entryY=0;entryDx=0;entryDy=0;" parent="VxItNK5nw-ICN9mxkyNQ-24" source="VxItNK5nw-ICN9mxkyNQ-31" target="VxItNK5nw-ICN9mxkyNQ-51" edge="1">
          <mxGeometry relative="1" as="geometry" />
        </mxCell>
        <mxCell id="VxItNK5nw-ICN9mxkyNQ-29" value="Sai" style="edgeLabel;html=1;align=center;verticalAlign=middle;resizable=0;points=[];" parent="VxItNK5nw-ICN9mxkyNQ-28" vertex="1" connectable="0">
          <mxGeometry x="0.0309" y="-2" relative="1" as="geometry">
            <mxPoint as="offset" />
          </mxGeometry>
        </mxCell>
        <mxCell id="VxItNK5nw-ICN9mxkyNQ-30" style="edgeStyle=orthogonalEdgeStyle;rounded=0;orthogonalLoop=1;jettySize=auto;html=1;exitX=1;exitY=0.5;exitDx=0;exitDy=0;entryX=0.5;entryY=0;entryDx=0;entryDy=0;" parent="VxItNK5nw-ICN9mxkyNQ-24" source="VxItNK5nw-ICN9mxkyNQ-31" target="VxItNK5nw-ICN9mxkyNQ-36" edge="1">
          <mxGeometry relative="1" as="geometry" />
        </mxCell>
        <mxCell id="VxItNK5nw-ICN9mxkyNQ-31" value="" style="rhombus;" parent="VxItNK5nw-ICN9mxkyNQ-24" vertex="1">
          <mxGeometry x="113" y="430" width="30" height="30" as="geometry" />
        </mxCell>
        <mxCell id="VxItNK5nw-ICN9mxkyNQ-32" style="edgeStyle=orthogonalEdgeStyle;rounded=0;orthogonalLoop=1;jettySize=auto;html=1;exitX=0.5;exitY=1;exitDx=0;exitDy=0;entryX=0.5;entryY=0;entryDx=0;entryDy=0;" parent="VxItNK5nw-ICN9mxkyNQ-24" source="VxItNK5nw-ICN9mxkyNQ-33" target="VxItNK5nw-ICN9mxkyNQ-31" edge="1">
          <mxGeometry relative="1" as="geometry" />
        </mxCell>
        <mxCell id="VxItNK5nw-ICN9mxkyNQ-33" value="Kiểm tra mã pin" style="rounded=1;whiteSpace=wrap;html=1;shadow=0;comic=0;labelBackgroundColor=none;strokeWidth=1;fontFamily=Verdana;fontSize=12;align=center;arcSize=50;" parent="VxItNK5nw-ICN9mxkyNQ-24" vertex="1">
          <mxGeometry x="59.5" y="360" width="127" height="40" as="geometry" />
        </mxCell>
        <mxCell id="VxItNK5nw-ICN9mxkyNQ-34" style="edgeStyle=orthogonalEdgeStyle;rounded=0;orthogonalLoop=1;jettySize=auto;html=1;exitX=0.5;exitY=1;exitDx=0;exitDy=0;entryX=1;entryY=0;entryDx=0;entryDy=0;" parent="VxItNK5nw-ICN9mxkyNQ-24" source="VxItNK5nw-ICN9mxkyNQ-35" target="VxItNK5nw-ICN9mxkyNQ-42" edge="1">
          <mxGeometry relative="1" as="geometry">
            <Array as="points">
              <mxPoint x="303" y="260" />
              <mxPoint x="303" y="820" />
            </Array>
          </mxGeometry>
        </mxCell>
        <mxCell id="VxItNK5nw-ICN9mxkyNQ-35" value="Thông báo không có khoản vay" style="rounded=1;whiteSpace=wrap;html=1;shadow=0;comic=0;labelBackgroundColor=none;strokeWidth=1;fontFamily=Verdana;fontSize=12;align=center;arcSize=50;" parent="VxItNK5nw-ICN9mxkyNQ-24" vertex="1">
          <mxGeometry x="188.5" y="220" width="127" height="40" as="geometry" />
        </mxCell>
        <mxCell id="VxItNK5nw-ICN9mxkyNQ-36" value="Gửi yêu cầu giao dịch" style="rounded=1;whiteSpace=wrap;html=1;shadow=0;comic=0;labelBackgroundColor=none;strokeWidth=1;fontFamily=Verdana;fontSize=12;align=center;arcSize=50;" parent="VxItNK5nw-ICN9mxkyNQ-24" vertex="1">
          <mxGeometry x="150" y="470" width="140" height="30" as="geometry" />
        </mxCell>
        <mxCell id="VxItNK5nw-ICN9mxkyNQ-37" value="" style="ellipse;html=1;shape=endState;fillColor=strokeColor;" parent="VxItNK5nw-ICN9mxkyNQ-24" vertex="1">
          <mxGeometry x="150" y="1040" width="30" height="30" as="geometry" />
        </mxCell>
        <mxCell id="VxItNK5nw-ICN9mxkyNQ-38" value="Yêu cầu nhập lại" style="rounded=1;whiteSpace=wrap;html=1;shadow=0;comic=0;labelBackgroundColor=none;strokeWidth=1;fontFamily=Verdana;fontSize=12;align=center;arcSize=50;" parent="VxItNK5nw-ICN9mxkyNQ-24" vertex="1">
          <mxGeometry x="13" y="590" width="117" height="30" as="geometry" />
        </mxCell>
        <mxCell id="VxItNK5nw-ICN9mxkyNQ-39" style="edgeStyle=elbowEdgeStyle;rounded=0;orthogonalLoop=1;jettySize=auto;html=1;" parent="VxItNK5nw-ICN9mxkyNQ-24" source="VxItNK5nw-ICN9mxkyNQ-40" target="VxItNK5nw-ICN9mxkyNQ-42" edge="1">
          <mxGeometry relative="1" as="geometry">
            <mxPoint x="263" y="830" as="targetPoint" />
          </mxGeometry>
        </mxCell>
        <mxCell id="VxItNK5nw-ICN9mxkyNQ-40" value="Khoá tài khoản" style="rounded=1;whiteSpace=wrap;html=1;shadow=0;comic=0;labelBackgroundColor=none;strokeWidth=1;fontFamily=Verdana;fontSize=12;align=center;arcSize=50;" parent="VxItNK5nw-ICN9mxkyNQ-24" vertex="1">
          <mxGeometry x="43" y="630" width="124.12" height="30" as="geometry" />
        </mxCell>
        <mxCell id="VxItNK5nw-ICN9mxkyNQ-41" style="edgeStyle=orthogonalEdgeStyle;rounded=0;orthogonalLoop=1;jettySize=auto;html=1;" parent="VxItNK5nw-ICN9mxkyNQ-24" source="VxItNK5nw-ICN9mxkyNQ-42" target="VxItNK5nw-ICN9mxkyNQ-37" edge="1">
          <mxGeometry relative="1" as="geometry" />
        </mxCell>
        <mxCell id="VxItNK5nw-ICN9mxkyNQ-42" value="" style="whiteSpace=wrap;html=1;rounded=0;shadow=0;comic=0;labelBackgroundColor=none;strokeWidth=1;fillColor=#000000;fontFamily=Verdana;fontSize=12;align=center;rotation=0;" parent="VxItNK5nw-ICN9mxkyNQ-24" vertex="1">
          <mxGeometry x="20" y="990" width="290" height="10" as="geometry" />
        </mxCell>
        <mxCell id="VxItNK5nw-ICN9mxkyNQ-43" style="edgeStyle=orthogonalEdgeStyle;rounded=0;orthogonalLoop=1;jettySize=auto;html=1;exitX=0;exitY=0.5;exitDx=0;exitDy=0;" parent="VxItNK5nw-ICN9mxkyNQ-24" source="VxItNK5nw-ICN9mxkyNQ-47" edge="1">
          <mxGeometry relative="1" as="geometry">
            <mxPoint x="73" y="240" as="targetPoint" />
          </mxGeometry>
        </mxCell>
        <mxCell id="VxItNK5nw-ICN9mxkyNQ-44" value="Có" style="edgeLabel;html=1;align=center;verticalAlign=middle;resizable=0;points=[];" parent="VxItNK5nw-ICN9mxkyNQ-43" vertex="1" connectable="0">
          <mxGeometry x="-0.3804" relative="1" as="geometry">
            <mxPoint as="offset" />
          </mxGeometry>
        </mxCell>
        <mxCell id="VxItNK5nw-ICN9mxkyNQ-45" style="edgeStyle=orthogonalEdgeStyle;rounded=0;orthogonalLoop=1;jettySize=auto;html=1;exitX=1;exitY=0.5;exitDx=0;exitDy=0;entryX=0;entryY=0.5;entryDx=0;entryDy=0;" parent="VxItNK5nw-ICN9mxkyNQ-24" source="VxItNK5nw-ICN9mxkyNQ-47" target="VxItNK5nw-ICN9mxkyNQ-35" edge="1">
          <mxGeometry relative="1" as="geometry" />
        </mxCell>
        <mxCell id="VxItNK5nw-ICN9mxkyNQ-46" value="Không" style="edgeLabel;html=1;align=center;verticalAlign=middle;resizable=0;points=[];" parent="VxItNK5nw-ICN9mxkyNQ-45" vertex="1" connectable="0">
          <mxGeometry x="-0.6504" y="1" relative="1" as="geometry">
            <mxPoint as="offset" />
          </mxGeometry>
        </mxCell>
        <mxCell id="VxItNK5nw-ICN9mxkyNQ-47" value="" style="rhombus;" parent="VxItNK5nw-ICN9mxkyNQ-24" vertex="1">
          <mxGeometry x="140" y="170" width="30" height="30" as="geometry" />
        </mxCell>
        <mxCell id="VxItNK5nw-ICN9mxkyNQ-48" value="Hiển thị thông tin thanh toán" style="rounded=1;whiteSpace=wrap;html=1;shadow=0;comic=0;labelBackgroundColor=none;strokeWidth=1;fontFamily=Verdana;fontSize=12;align=center;arcSize=50;" parent="VxItNK5nw-ICN9mxkyNQ-24" vertex="1">
          <mxGeometry x="13" y="220" width="127" height="30" as="geometry" />
        </mxCell>
        <mxCell id="VxItNK5nw-ICN9mxkyNQ-49" value="Yêu cầu nhập mã pin&lt;span style=&quot;color: rgba(0, 0, 0, 0); font-family: monospace; font-size: 0px; text-align: start; text-wrap-mode: nowrap;&quot;&gt;%3CmxGraphModel%3E%3Croot%3E%3CmxCell%20id%3D%220%22%2F%3E%3CmxCell%20id%3D%221%22%20parent%3D%220%22%2F%3E%3CmxCell%20id%3D%222%22%20value%3D%22Hi%E1%BB%83n%20th%E1%BB%8B%20tu%E1%BB%B3%20ch%E1%BB%8Dn%22%20style%3D%22rounded%3D1%3BwhiteSpace%3Dwrap%3Bhtml%3D1%3Bshadow%3D0%3Bcomic%3D0%3BlabelBackgroundColor%3Dnone%3BstrokeWidth%3D1%3BfontFamily%3DVerdana%3BfontSize%3D12%3Balign%3Dcenter%3BarcSize%3D50%3B%22%20vertex%3D%221%22%20parent%3D%221%22%3E%3CmxGeometry%20x%3D%22888.5%22%20y%3D%221565%22%20width%3D%22127%22%20height%3D%2230%22%20as%3D%22geometry%22%2F%3E%3C%2FmxCell%3E%3C%2Froot%3E%3C%2FmxGraphModel%3E&lt;/span&gt;" style="rounded=1;whiteSpace=wrap;html=1;shadow=0;comic=0;labelBackgroundColor=none;strokeWidth=1;fontFamily=Verdana;fontSize=12;align=center;arcSize=50;" parent="VxItNK5nw-ICN9mxkyNQ-24" vertex="1">
          <mxGeometry x="18" y="300" width="127" height="30" as="geometry" />
        </mxCell>
        <mxCell id="VxItNK5nw-ICN9mxkyNQ-50" style="edgeStyle=orthogonalEdgeStyle;rounded=0;orthogonalLoop=1;jettySize=auto;html=1;exitX=0.5;exitY=1;exitDx=0;exitDy=0;entryX=0.5;entryY=0;entryDx=0;entryDy=0;" parent="VxItNK5nw-ICN9mxkyNQ-24" source="VxItNK5nw-ICN9mxkyNQ-51" target="VxItNK5nw-ICN9mxkyNQ-58" edge="1">
          <mxGeometry relative="1" as="geometry" />
        </mxCell>
        <mxCell id="VxItNK5nw-ICN9mxkyNQ-51" value="Lỗi sai mã pin" style="rounded=1;whiteSpace=wrap;html=1;shadow=0;comic=0;labelBackgroundColor=none;strokeWidth=1;fontFamily=Verdana;fontSize=12;align=center;arcSize=50;" parent="VxItNK5nw-ICN9mxkyNQ-24" vertex="1">
          <mxGeometry x="13" y="470" width="100" height="30" as="geometry" />
        </mxCell>
        <mxCell id="VxItNK5nw-ICN9mxkyNQ-52" value="Thông báo không đủ số dư" style="rounded=1;whiteSpace=wrap;html=1;shadow=0;comic=0;labelBackgroundColor=none;strokeWidth=1;fontFamily=Verdana;fontSize=12;align=center;arcSize=50;" parent="VxItNK5nw-ICN9mxkyNQ-24" vertex="1">
          <mxGeometry x="186.38" y="580" width="114.25" height="30" as="geometry" />
        </mxCell>
        <mxCell id="VxItNK5nw-ICN9mxkyNQ-53" style="edgeStyle=orthogonalEdgeStyle;rounded=0;orthogonalLoop=1;jettySize=auto;html=1;exitX=0.5;exitY=1;exitDx=0;exitDy=0;entryX=0.75;entryY=0;entryDx=0;entryDy=0;" parent="VxItNK5nw-ICN9mxkyNQ-24" source="VxItNK5nw-ICN9mxkyNQ-52" target="VxItNK5nw-ICN9mxkyNQ-42" edge="1">
          <mxGeometry relative="1" as="geometry" />
        </mxCell>
        <mxCell id="VxItNK5nw-ICN9mxkyNQ-54" style="edgeStyle=orthogonalEdgeStyle;rounded=0;orthogonalLoop=1;jettySize=auto;html=1;exitX=1;exitY=0.5;exitDx=0;exitDy=0;entryX=0.75;entryY=0;entryDx=0;entryDy=0;" parent="VxItNK5nw-ICN9mxkyNQ-24" source="VxItNK5nw-ICN9mxkyNQ-58" target="VxItNK5nw-ICN9mxkyNQ-40" edge="1">
          <mxGeometry relative="1" as="geometry">
            <mxPoint x="143" y="555.230769230769" as="targetPoint" />
          </mxGeometry>
        </mxCell>
        <mxCell id="VxItNK5nw-ICN9mxkyNQ-55" value="Đúng" style="edgeLabel;html=1;align=center;verticalAlign=middle;resizable=0;points=[];" parent="VxItNK5nw-ICN9mxkyNQ-54" vertex="1" connectable="0">
          <mxGeometry x="-0.3511" y="-1" relative="1" as="geometry">
            <mxPoint as="offset" />
          </mxGeometry>
        </mxCell>
        <mxCell id="VxItNK5nw-ICN9mxkyNQ-56" style="edgeStyle=orthogonalEdgeStyle;rounded=0;orthogonalLoop=1;jettySize=auto;html=1;exitX=0;exitY=0.5;exitDx=0;exitDy=0;entryX=0.208;entryY=-0.019;entryDx=0;entryDy=0;entryPerimeter=0;" parent="VxItNK5nw-ICN9mxkyNQ-24" source="VxItNK5nw-ICN9mxkyNQ-58" target="VxItNK5nw-ICN9mxkyNQ-38" edge="1">
          <mxGeometry relative="1" as="geometry" />
        </mxCell>
        <mxCell id="VxItNK5nw-ICN9mxkyNQ-57" value="Sai" style="edgeLabel;html=1;align=center;verticalAlign=middle;resizable=0;points=[];" parent="VxItNK5nw-ICN9mxkyNQ-56" vertex="1" connectable="0">
          <mxGeometry x="-0.3658" y="-2" relative="1" as="geometry">
            <mxPoint as="offset" />
          </mxGeometry>
        </mxCell>
        <mxCell id="VxItNK5nw-ICN9mxkyNQ-58" value="Quá 5 lần" style="rhombus;" parent="VxItNK5nw-ICN9mxkyNQ-24" vertex="1">
          <mxGeometry x="44" y="520" width="65" height="60" as="geometry" />
        </mxCell>
        <mxCell id="VxItNK5nw-ICN9mxkyNQ-59" value="Kiểm tra điều kiện" style="rounded=1;whiteSpace=wrap;html=1;shadow=0;comic=0;labelBackgroundColor=none;strokeWidth=1;fontFamily=Verdana;fontSize=12;align=center;arcSize=50;" parent="VxItNK5nw-ICN9mxkyNQ-24" vertex="1">
          <mxGeometry x="5.8799999999999955" y="730" width="124.12" height="30" as="geometry" />
        </mxCell>
        <mxCell id="VxItNK5nw-ICN9mxkyNQ-60" style="edgeStyle=orthogonalEdgeStyle;rounded=0;orthogonalLoop=1;jettySize=auto;html=1;exitX=1;exitY=0.5;exitDx=0;exitDy=0;entryX=0;entryY=0.5;entryDx=0;entryDy=0;" parent="VxItNK5nw-ICN9mxkyNQ-24" source="VxItNK5nw-ICN9mxkyNQ-64" target="VxItNK5nw-ICN9mxkyNQ-66" edge="1">
          <mxGeometry relative="1" as="geometry">
            <mxPoint x="113" y="850" as="targetPoint" />
          </mxGeometry>
        </mxCell>
        <mxCell id="VxItNK5nw-ICN9mxkyNQ-61" value="Đủ" style="edgeLabel;html=1;align=center;verticalAlign=middle;resizable=0;points=[];" parent="VxItNK5nw-ICN9mxkyNQ-60" vertex="1" connectable="0">
          <mxGeometry x="-0.5029" y="3" relative="1" as="geometry">
            <mxPoint as="offset" />
          </mxGeometry>
        </mxCell>
        <mxCell id="VxItNK5nw-ICN9mxkyNQ-62" style="edgeStyle=orthogonalEdgeStyle;rounded=0;orthogonalLoop=1;jettySize=auto;html=1;exitX=0;exitY=0.5;exitDx=0;exitDy=0;entryX=0.045;entryY=0.114;entryDx=0;entryDy=0;entryPerimeter=0;" parent="VxItNK5nw-ICN9mxkyNQ-24" source="VxItNK5nw-ICN9mxkyNQ-64" target="VxItNK5nw-ICN9mxkyNQ-42" edge="1">
          <mxGeometry relative="1" as="geometry">
            <mxPoint x="23" y="850" as="targetPoint" />
          </mxGeometry>
        </mxCell>
        <mxCell id="VxItNK5nw-ICN9mxkyNQ-63" value="Không đủ" style="edgeLabel;html=1;align=center;verticalAlign=middle;resizable=0;points=[];" parent="VxItNK5nw-ICN9mxkyNQ-62" vertex="1" connectable="0">
          <mxGeometry x="-0.4092" y="1" relative="1" as="geometry">
            <mxPoint as="offset" />
          </mxGeometry>
        </mxCell>
        <mxCell id="VxItNK5nw-ICN9mxkyNQ-64" value="" style="rhombus;" parent="VxItNK5nw-ICN9mxkyNQ-24" vertex="1">
          <mxGeometry x="52.940000000000055" y="780" width="30" height="30" as="geometry" />
        </mxCell>
        <mxCell id="VxItNK5nw-ICN9mxkyNQ-65" style="edgeStyle=orthogonalEdgeStyle;rounded=0;orthogonalLoop=1;jettySize=auto;html=1;exitX=0.5;exitY=1;exitDx=0;exitDy=0;entryX=0.475;entryY=0.18;entryDx=0;entryDy=0;entryPerimeter=0;" parent="VxItNK5nw-ICN9mxkyNQ-24" source="VxItNK5nw-ICN9mxkyNQ-59" target="VxItNK5nw-ICN9mxkyNQ-64" edge="1">
          <mxGeometry relative="1" as="geometry" />
        </mxCell>
        <mxCell id="VxItNK5nw-ICN9mxkyNQ-66" value="Gửi yêu cầu vay" style="rounded=1;whiteSpace=wrap;html=1;shadow=0;comic=0;labelBackgroundColor=none;strokeWidth=1;fontFamily=Verdana;fontSize=12;align=center;arcSize=50;" parent="VxItNK5nw-ICN9mxkyNQ-24" vertex="1">
          <mxGeometry x="143" y="850" width="107.12" height="20" as="geometry" />
        </mxCell>
        <mxCell id="VxItNK5nw-ICN9mxkyNQ-67" value="Ngân hàng" style="swimlane;html=1;startSize=20;" parent="VxItNK5nw-ICN9mxkyNQ-2" vertex="1">
          <mxGeometry x="671.25" y="20" width="250" height="1080" as="geometry" />
        </mxCell>
        <mxCell id="VxItNK5nw-ICN9mxkyNQ-68" style="edgeStyle=orthogonalEdgeStyle;rounded=0;orthogonalLoop=1;jettySize=auto;html=1;" parent="VxItNK5nw-ICN9mxkyNQ-67" source="VxItNK5nw-ICN9mxkyNQ-69" target="VxItNK5nw-ICN9mxkyNQ-70" edge="1">
          <mxGeometry relative="1" as="geometry" />
        </mxCell>
        <mxCell id="VxItNK5nw-ICN9mxkyNQ-69" value="Kiểm tra số dư" style="rounded=1;whiteSpace=wrap;html=1;shadow=0;comic=0;labelBackgroundColor=none;strokeWidth=1;fontFamily=Verdana;fontSize=12;align=center;arcSize=50;" parent="VxItNK5nw-ICN9mxkyNQ-67" vertex="1">
          <mxGeometry x="51.5" y="470" width="114.25" height="30" as="geometry" />
        </mxCell>
        <mxCell id="VxItNK5nw-ICN9mxkyNQ-70" value="" style="rhombus;" parent="VxItNK5nw-ICN9mxkyNQ-67" vertex="1">
          <mxGeometry x="173" y="500" width="30" height="30" as="geometry" />
        </mxCell>
        <mxCell id="VxItNK5nw-ICN9mxkyNQ-71" value="Chấp nhập yêu cầu" style="rounded=1;whiteSpace=wrap;html=1;shadow=0;comic=0;labelBackgroundColor=none;strokeWidth=1;fontFamily=Verdana;fontSize=12;align=center;arcSize=50;" parent="VxItNK5nw-ICN9mxkyNQ-67" vertex="1">
          <mxGeometry x="88.75000000000011" y="845" width="124.12" height="30" as="geometry" />
        </mxCell>
        <mxCell id="VxItNK5nw-ICN9mxkyNQ-72" style="edgeStyle=orthogonalEdgeStyle;rounded=0;orthogonalLoop=1;jettySize=auto;html=1;exitX=0;exitY=0.5;exitDx=0;exitDy=0;entryX=0.5;entryY=0;entryDx=0;entryDy=0;" parent="VxItNK5nw-ICN9mxkyNQ-2" source="VxItNK5nw-ICN9mxkyNQ-70" target="VxItNK5nw-ICN9mxkyNQ-42" edge="1">
          <mxGeometry relative="1" as="geometry">
            <mxPoint x="630" y="565.230769230769" as="targetPoint" />
          </mxGeometry>
        </mxCell>
        <mxCell id="VxItNK5nw-ICN9mxkyNQ-73" value="Đủ" style="edgeLabel;html=1;align=center;verticalAlign=middle;resizable=0;points=[];" parent="VxItNK5nw-ICN9mxkyNQ-72" vertex="1" connectable="0">
          <mxGeometry x="-0.1823" y="-1" relative="1" as="geometry">
            <mxPoint as="offset" />
          </mxGeometry>
        </mxCell>
        <mxCell id="VxItNK5nw-ICN9mxkyNQ-74" style="edgeStyle=orthogonalEdgeStyle;rounded=0;orthogonalLoop=1;jettySize=auto;html=1;exitX=0.5;exitY=0;exitDx=0;exitDy=0;entryX=0;entryY=0.5;entryDx=0;entryDy=0;" parent="VxItNK5nw-ICN9mxkyNQ-2" source="VxItNK5nw-ICN9mxkyNQ-22" target="VxItNK5nw-ICN9mxkyNQ-33" edge="1">
          <mxGeometry relative="1" as="geometry" />
        </mxCell>
        <mxCell id="VxItNK5nw-ICN9mxkyNQ-75" style="edgeStyle=orthogonalEdgeStyle;rounded=0;orthogonalLoop=1;jettySize=auto;html=1;exitX=0.5;exitY=1;exitDx=0;exitDy=0;entryX=0.5;entryY=0;entryDx=0;entryDy=0;" parent="VxItNK5nw-ICN9mxkyNQ-2" source="VxItNK5nw-ICN9mxkyNQ-70" target="VxItNK5nw-ICN9mxkyNQ-52" edge="1">
          <mxGeometry relative="1" as="geometry">
            <mxPoint x="614.25" y="700" as="targetPoint" />
          </mxGeometry>
        </mxCell>
        <mxCell id="VxItNK5nw-ICN9mxkyNQ-76" value="Không đủ" style="edgeLabel;html=1;align=center;verticalAlign=middle;resizable=0;points=[];" parent="VxItNK5nw-ICN9mxkyNQ-75" vertex="1" connectable="0">
          <mxGeometry x="0.1054" y="2" relative="1" as="geometry">
            <mxPoint as="offset" />
          </mxGeometry>
        </mxCell>
        <mxCell id="VxItNK5nw-ICN9mxkyNQ-77" style="edgeStyle=orthogonalEdgeStyle;rounded=0;orthogonalLoop=1;jettySize=auto;html=1;exitX=1;exitY=0.5;exitDx=0;exitDy=0;entryX=0;entryY=0.5;entryDx=0;entryDy=0;" parent="VxItNK5nw-ICN9mxkyNQ-2" source="VxItNK5nw-ICN9mxkyNQ-66" target="VxItNK5nw-ICN9mxkyNQ-71" edge="1">
          <mxGeometry relative="1" as="geometry">
            <mxPoint x="750" y="879.8461538461538" as="targetPoint" />
          </mxGeometry>
        </mxCell>
        <mxCell id="VxItNK5nw-ICN9mxkyNQ-78" style="edgeStyle=orthogonalEdgeStyle;rounded=0;orthogonalLoop=1;jettySize=auto;html=1;exitX=0.5;exitY=1;exitDx=0;exitDy=0;entryX=0.888;entryY=0.114;entryDx=0;entryDy=0;entryPerimeter=0;" parent="VxItNK5nw-ICN9mxkyNQ-2" source="VxItNK5nw-ICN9mxkyNQ-71" target="VxItNK5nw-ICN9mxkyNQ-42" edge="1">
          <mxGeometry relative="1" as="geometry" />
        </mxCell>
        <mxCell id="VxItNK5nw-ICN9mxkyNQ-79" style="edgeStyle=orthogonalEdgeStyle;rounded=0;orthogonalLoop=1;jettySize=auto;html=1;exitX=1;exitY=0.5;exitDx=0;exitDy=0;entryX=0.5;entryY=0;entryDx=0;entryDy=0;" parent="VxItNK5nw-ICN9mxkyNQ-2" source="VxItNK5nw-ICN9mxkyNQ-13" target="VxItNK5nw-ICN9mxkyNQ-59" edge="1">
          <mxGeometry relative="1" as="geometry">
            <mxPoint x="380" y="715.230769230769" as="targetPoint" />
          </mxGeometry>
        </mxCell>
      </root>
    </mxGraphModel>
  </diagram>
</mxfile>
